# xmcd
#
# Track frame offsets:
#	150
#	33750
#	50134
#	65048
#	83086
#	103542
#	129063
#	143750
#	158131
#	186966
#
# Disc length: 2691 seconds
#
# Revision: 12
# Processed by: cddbd v1.5.2PL0 Copyright (c) Steve Scherf et al.
# Submitted via: audiograbber 1.83.01
#
DISCID=800a810a
DTITLE=Various Artist - ETNO PARTY vol. III
DYEAR=1900
DGENRE=FOLCLOR
TTITLE0=Danny feat. Etnic and Varu Sandel - Ciuleandra(Extended Danny Mix)
TTITLE1=Radu Ille - Ciobanasul(D.J. Phantom Mix)
TTITLE2=Etnic - Bade palarie noua (Danny Mix)
TTITLE3=Rustic - Turai (Danny Mix)
TTITLE4=Marius Dragomir - Sexy baby(Raggae mix)
TTITLE5=Autentic - Asa beu oamenii buni(Autentic remix)
TTITLE6=Etnic - Badita de dragul tau Pozitiv Masterul(D.J. Jonnessey Remix)
TTITLE7=Alina - Bun ii vinul ghiurghiuliu(Danny Mix)
TTITLE8=Autentic feat. D.J. Pytoo - Aseara ti-am luat basma(Club edit)
TTITLE9=Radu Ille - Cine-o pus carciuma-n drum(D.J. Phantom Drum'n Base Mix)
EXTD=
EXTT0=
EXTT1=
EXTT2=
EXTT3=
EXTT4=
EXTT5=
EXTT6=
EXTT7=
EXTT8=
EXTT9=
PLAYORDER=
